<svg width="58" height="55" viewBox="0 0 58 55" fill="none" xmlns="http://www.w3.org/2000/svg">
<path d="M22.642 52.601C22.8617 52.6965 23.0986 52.7459 23.3382 52.7462C24.0499 52.7445 24.6907 52.3139 24.9606 51.6554L26.3846 48.2142C28.117 48.4509 29.8737 48.4484 31.6054 48.2068L33.0354 51.6512C33.2113 52.0842 33.5531 52.4289 33.9847 52.6084C34.4163 52.7878 34.9017 52.7872 35.3328 52.6066L41.2851 50.1387C41.7246 49.9582 42.0731 49.6085 42.2521 49.1683C42.4275 48.743 42.4231 48.2648 42.24 47.8427L40.8161 44.3932C42.2096 43.3378 43.4522 42.0967 44.5091 40.7044L47.9383 42.1237C48.3705 42.3105 48.8597 42.3156 49.2957 42.1378C49.7316 41.96 50.0778 41.6143 50.2561 41.1785L52.7274 35.2187C52.9053 34.789 52.9065 34.3065 52.7306 33.876C52.5551 33.4408 52.2109 33.0951 51.7765 32.9177L49.3352 31.9013L9.5577 31.5386L6.1917 32.926C5.3089 33.3052 4.8974 34.3257 5.2703 35.2112L7.7315 41.1821C7.9107 41.6104 8.25231 41.9502 8.68141 42.1273C9.11081 42.3085 9.5951 42.3093 10.0251 42.1296L13.4774 40.7038C14.5362 42.0971 15.779 43.3403 17.1718 44.3996L15.7564 47.8212C15.5664 48.2487 15.5587 48.735 15.7351 49.1682C15.9137 49.6072 16.2609 49.9563 16.6989 50.1371L22.642 52.601Z" stroke="#B00000" stroke-width="3"/>
<path d="M48.4716 32.2471H48.4708H12.8489C6.8572 32.2471 2 27.3898 2 21.3981C2 15.4064 6.8572 10.5492 12.8489 10.5492C12.9245 10.5492 12.992 10.5497 13.055 10.5511L14.0616 10.574L14.4641 9.6512C16.4908 5.0042 21.0787 2 26.1484 2C31.2182 2 35.806 5.0042 37.8328 9.6512L38.2159 10.5295L39.1739 10.5511C42.8845 10.6348 46.2019 12.885 47.6517 16.3017L48.014 17.1557L48.9399 17.213C52.9981 17.4638 56.1229 20.8932 55.9963 24.9571C55.8697 29.021 52.5375 32.2493 48.4716 32.2471Z" stroke="#B00000" stroke-width="3"/>
<path d="M28.9961 42.5468H28.9981C34.998 42.523 40.37 38.824 42.5326 33.2274C42.6898 32.8261 42.6197 32.3713 42.3489 32.0359C42.078 31.7004 41.6479 31.5361 41.2223 31.6055C40.797 31.6748 40.4416 31.9668 40.2911 32.3705C38.5028 37.0534 34.01 40.1471 28.9971 40.1471C23.9842 40.1471 19.4914 37.0534 17.7031 32.3704C17.5526 31.9668 17.1972 31.6748 16.7719 31.6055C16.3463 31.5361 15.9162 31.7004 15.6453 32.0359C15.3745 32.3713 15.3044 32.8261 15.4616 33.2273C17.6242 38.824 22.9962 42.523 28.9961 42.5468Z" fill="#B00000" stroke="#B00000" stroke-width="0.5"/>
</svg>
